<svg width="1384" height="646" viewBox="0 0 1384 646" fill="none" xmlns="http://www.w3.org/2000/svg">
<path opacity="0.15" d="M692.626 2C769.632 2 824.263 29.5316 855.974 84.8691L856.718 86.1816L856.722 86.1885L857.448 87.502C888.084 143.294 903.301 222.002 903.301 323.427C903.301 425.647 887.704 504.654 856.302 560.241L856.303 560.242C824.982 616.179 770.233 644 692.626 644C615.019 644 560.135 616.178 528.536 560.248L528.532 560.242C497.409 504.657 481.951 425.649 481.951 323.427C481.951 221.203 497.409 142.056 528.53 86.1885L528.534 86.1816L529.278 84.8691C560.989 29.5316 615.62 2 692.626 2ZM361.999 10.1025V396.485H430.444V495.588H361.999V628.647H241.559V495.588H2V386.849L2.2793 386.377L224.727 11.083L225.308 10.1025H361.999ZM1313.55 10.1025V396.485H1382V495.588H1313.55V628.647H1193.11V495.588H953.556V386.849L953.836 386.377L1176.28 11.083L1176.86 10.1025H1313.55ZM692.626 106.221C675.307 106.221 661.083 110.604 649.812 119.242C638.531 127.888 630.031 140.933 624.417 158.562C613.107 194.08 607.4 248.982 607.4 323.427C607.4 394.436 613.103 448.65 624.425 486.183L624.961 487.903C630.583 505.531 638.912 518.646 649.848 527.426C661.117 536.474 675.329 541.059 692.626 541.059C709.92 541.059 724.092 536.44 735.29 527.327C746.157 518.483 754.39 505.271 759.882 487.507L760.404 485.773C771.175 448.516 776.6 394.438 776.6 323.427C776.6 248.981 771.032 194.073 759.996 158.549L759.994 158.542L759.992 158.536C754.653 140.91 746.359 127.873 735.222 119.234C724.094 110.604 709.945 106.221 692.626 106.221ZM1047.05 396.485H1193.11V139.091L1047.05 396.485ZM95.4951 396.485H241.559V139.091L95.4951 396.485Z" stroke="white" stroke-width="4"/>
</svg>
