<svg width="21" height="12" viewBox="0 0 21 12" fill="none" xmlns="http://www.w3.org/2000/svg">
<path d="M18.8092 0.435575L10.1965 9.20244L1.58384 0.435575C1.42996 0.278611 1.22339 0.190734 1.00828 0.190734C0.793169 0.190734 0.586596 0.278611 0.432722 0.435575C0.358214 0.511807 0.299021 0.602797 0.258612 0.703217C0.218202 0.803636 0.197388 0.911467 0.197388 1.02039C0.197388 1.12932 0.218202 1.23715 0.258612 1.33757C0.299021 1.43799 0.358214 1.52898 0.432722 1.60521L9.5951 10.9335C9.756 11.0973 9.97181 11.1889 10.1965 11.1889C10.4212 11.1889 10.637 11.0973 10.7979 10.9335L19.9603 1.60701C20.0353 1.53072 20.095 1.43951 20.1357 1.33875C20.1764 1.238 20.1974 1.12975 20.1974 1.02039C20.1974 0.911034 20.1764 0.802783 20.1357 0.70203C20.095 0.601277 20.0353 0.510064 19.9603 0.433775C19.8064 0.27681 19.5998 0.188934 19.3847 0.188934C19.1696 0.188934 18.963 0.27681 18.8092 0.433775V0.435575Z" fill="black"/>
</svg>
