<svg width="31" height="31" viewBox="0 0 31 31" fill="none" xmlns="http://www.w3.org/2000/svg">
<path d="M15.4258 18.619L4.24707 29.7977C3.82882 30.2159 3.2965 30.425 2.65012 30.425C2.00373 30.425 1.47141 30.2159 1.05316 29.7977C0.634906 29.3794 0.425781 28.8471 0.425781 28.2007C0.425781 27.5543 0.634906 27.022 1.05316 26.6038L12.2319 15.425L1.05316 4.24634C0.634906 3.82809 0.425781 3.29577 0.425781 2.64938C0.425781 2.003 0.634906 1.47068 1.05316 1.05242C1.47141 0.634173 2.00373 0.425049 2.65012 0.425049C3.2965 0.425049 3.82882 0.634173 4.24707 1.05242L15.4258 12.2311L26.6045 1.05242C27.0227 0.634173 27.5551 0.425049 28.2014 0.425049C28.8478 0.425049 29.3802 0.634173 29.7984 1.05242C30.2167 1.47068 30.4258 2.003 30.4258 2.64938C30.4258 3.29577 30.2167 3.82809 29.7984 4.24634L18.6197 15.425L29.7984 26.6038C30.2167 27.022 30.4258 27.5543 30.4258 28.2007C30.4258 28.8471 30.2167 29.3794 29.7984 29.7977C29.3802 30.2159 28.8478 30.425 28.2014 30.425C27.5551 30.425 27.0227 30.2159 26.6045 29.7977L15.4258 18.619Z" fill="white"/>
</svg>
