<svg width="16" height="17" viewBox="0 0 16 17" fill="none" xmlns="http://www.w3.org/2000/svg">
<path d="M14.0009 3.83333L2.00092 3.83332C1.87942 3.8337 1.76033 3.86721 1.65647 3.93024C1.5526 3.99327 1.46789 4.08343 1.41146 4.19103C1.35502 4.29862 1.32899 4.41956 1.33618 4.54085C1.34337 4.66213 1.3835 4.77915 1.45225 4.87932L7.45225 13.546C7.70092 13.9053 8.29958 13.9053 8.54892 13.546L14.5489 4.87932C14.6184 4.77936 14.6591 4.66228 14.6667 4.5408C14.6743 4.41931 14.6484 4.29807 14.5919 4.19025C14.5354 4.08243 14.4505 3.99216 14.3463 3.92923C14.2421 3.8663 14.1226 3.83313 14.0009 3.83333Z" fill="#1A1A1A"/>
</svg>
