<svg width="28" height="28" viewBox="0 0 28 28" fill="none" xmlns="http://www.w3.org/2000/svg">
<path fill-rule="evenodd" clip-rule="evenodd" d="M7.18322 2.55617C5.56942 2.7731 4.60565 3.18448 3.8951 3.89503C3.1846 4.60553 2.77319 5.56958 2.55625 7.18363C2.33545 8.82637 2.33333 10.9863 2.33333 13.9999C2.33333 17.0142 2.33545 19.1741 2.55625 20.8167C2.77318 22.4305 3.18456 23.3943 3.8951 24.1048C4.6056 24.8153 5.56966 25.2267 7.18371 25.4437C8.82644 25.6645 10.9864 25.6666 14 25.6666C17.0143 25.6666 19.1742 25.6645 20.8168 25.4437C22.4306 25.2267 23.3944 24.8154 24.1049 24.1048C24.8154 23.3943 25.2268 22.4303 25.4437 20.8162C25.6645 19.1735 25.6667 17.0135 25.6667 13.9999C25.6667 10.9857 25.6645 8.8257 25.4437 7.18314C25.2268 5.56934 24.8154 4.60557 24.1049 3.89503C23.3944 3.18453 22.4303 2.77312 20.8163 2.55617C19.1736 2.33538 17.0136 2.33325 14 2.33325C10.9857 2.33325 8.82578 2.33538 7.18322 2.55617ZM13.9238 0.333252H14.0762C16.9969 0.333234 19.2913 0.33322 21.0827 0.573998C22.9183 0.820722 24.3749 1.33664 25.5191 2.48081C26.6632 3.62494 27.1792 5.08117 27.4259 6.9167C27.6667 8.70792 27.6667 11.0023 27.6667 13.9237V14.0761C27.6667 16.9969 27.6667 19.2913 27.4259 21.0826C27.1792 22.9182 26.6633 24.3749 25.5191 25.519C24.375 26.6632 22.9188 27.1791 21.0832 27.4258C19.292 27.6666 16.9976 27.6666 14.0762 27.6666H13.9238C11.003 27.6666 8.70867 27.6666 6.91729 27.4258C5.08167 27.1791 3.62506 26.6632 2.48089 25.519C1.33676 24.3749 0.820812 22.9187 0.574076 21.0831C0.333296 19.2919 0.33331 16.9975 0.333329 14.0762V13.9237C0.33331 11.003 0.333296 8.70859 0.574075 6.91721C0.820798 5.08159 1.33672 3.62498 2.48089 2.48081C3.62501 1.33669 5.08124 0.820736 6.91677 0.574C8.708 0.33322 11.0024 0.333234 13.9238 0.333252Z" fill="white"/>
<path fill-rule="evenodd" clip-rule="evenodd" d="M20.3307 6.6665C20.3307 6.11422 20.7784 5.6665 21.3307 5.6665H21.344C21.8963 5.6665 22.344 6.11422 22.344 6.6665C22.344 7.21879 21.8963 7.6665 21.344 7.6665H21.3307C20.7784 7.6665 20.3307 7.21879 20.3307 6.6665ZM14 8.99984C12.6739 8.99984 11.4021 9.52662 10.4645 10.4643C9.52678 11.402 8.99999 12.6738 8.99999 13.9998C8.99999 15.3259 9.52678 16.5977 10.4645 17.5354C11.4021 18.4731 12.6739 18.9998 14 18.9998C15.3261 18.9998 16.5978 18.4731 17.5355 17.5354C18.4732 16.5977 19 15.3259 19 13.9998C19 12.6738 18.4732 11.402 17.5355 10.4643C16.5978 9.52662 15.3261 8.99984 14 8.99984ZM9.05025 9.05009C10.363 7.73734 12.1435 6.99984 14 6.99984C15.8565 6.99984 17.637 7.73734 18.9497 9.05009C20.2625 10.3628 21 12.1433 21 13.9998C21 15.8564 20.2625 17.6368 18.9497 18.9496C17.637 20.2623 15.8565 20.9998 14 20.9998C12.1435 20.9998 10.363 20.2623 9.05025 18.9496C7.73749 17.6368 6.99999 15.8564 6.99999 13.9998C6.99999 12.1433 7.73749 10.3628 9.05025 9.05009Z" fill="white"/>
</svg>
