<svg width="16" height="16" viewBox="0 0 16 16" fill="none" xmlns="http://www.w3.org/2000/svg">
<path d="M12.25 0H3.75C1.67893 0 0 1.67893 0 3.75V12.25C0 14.3211 1.67893 16 3.75 16H12.25C14.3211 16 16 14.3211 16 12.25V3.75C16 1.67893 14.3211 0 12.25 0Z" fill="#F4F2ED"/>
<path d="M2.60225 12.6899H4.59088V7.86036L1.75 5.72974V11.8377C1.75 12.3092 2.13213 12.6899 2.60225 12.6899Z" fill="#4285F4"/>
<path d="M11.4102 12.69H13.3988C13.8704 12.69 14.2511 12.3079 14.2511 11.8377V5.72974L11.4102 7.86042" fill="#34A853"/>
<path d="M11.4102 4.16724V7.86042L14.2511 5.7298V4.5933C14.2511 3.53936 13.048 2.93849 12.2057 3.57061" fill="#FBBC04"/>
<path d="M4.58984 7.86036V4.16724L7.99891 6.72393L11.408 4.16711V7.8603L7.99891 10.4172" fill="#EA4335"/>
<path d="M1.75 4.5933V5.72967L4.59088 7.86036V4.16724L3.79544 3.57061C2.95169 2.93849 1.75 3.53936 1.75 4.5933Z" fill="#C5221F"/>
</svg>
