<svg width="14" height="14" viewBox="0 0 14 14" fill="none" xmlns="http://www.w3.org/2000/svg">
<path d="M8.66406 2.96851V5.70701L9.62206 6.30951C9.65667 6.31694 9.69246 6.31694 9.72706 6.30951L13.8461 3.53251C13.8431 3.39773 13.7937 3.2681 13.7064 3.16539C13.6191 3.06268 13.4991 2.99316 13.3666 2.96851H8.66406Z" fill="#0072C6"/>
<path d="M8.66561 6.7284L9.53911 7.3284C9.57997 7.35342 9.62695 7.36666 9.67486 7.36666C9.72277 7.36666 9.76975 7.35342 9.81061 7.3284C9.66061 7.4189 13.8471 4.6394 13.8471 4.6394V9.6724C13.858 9.77439 13.8465 9.87753 13.8134 9.97461C13.7803 10.0717 13.7264 10.1604 13.6554 10.2344C13.5845 10.3085 13.4982 10.3661 13.4026 10.4033C13.307 10.7676 13.2045 10.4565 13.1021 10.4499H8.66511L8.66561 6.7284ZM4.14361 5.4659C3.99848 5.46526 3.85589 5.50386 3.7309 5.57762C3.60592 5.65138 3.5032 5.75755 3.43361 5.8849C3.24364 6.22258 3.1525 6.60688 3.17061 6.9939C3.15087 7.38012 3.24213 7.76391 3.43361 8.0999C3.50286 8.22205 3.60305 8.32382 3.72409 8.39498C3.84513 8.46614 3.98278 8.50419 4.12318 8.50531C4.26359 8.50642 4.40182 8.47056 4.52398 8.40133C4.64614 8.3321 4.74792 8.23194 4.81911 8.1109C5.00887 7.7766 5.09827 7.3947 5.07661 7.0109C5.09827 6.6151 5.01185 6.22086 4.82661 5.8704C4.76023 5.74731 4.66158 5.64462 4.54125 5.57336C4.42092 5.5021 4.28345 5.46495 4.14361 5.4659Z" fill="#0072C6"/>
<path d="M0 1.5775V12.291L8.15 14V0L0 1.5775ZM5.454 8.7455C5.30157 8.96046 5.09886 9.13486 4.86354 9.25347C4.62823 9.37209 4.36747 9.43132 4.104 9.426C3.84717 9.43056 3.59304 9.37303 3.36322 9.2583C3.13341 9.14356 2.9347 8.97502 2.784 8.767C2.42663 8.26799 2.24784 7.66311 2.2765 7.05C2.24617 6.40683 2.42819 5.77153 2.7945 5.242C2.94898 5.02306 3.1549 4.84544 3.39414 4.72478C3.63338 4.60411 3.89861 4.57679 4.1665 4.55C4.42144 4.54506 4.6737 4.60268 4.90121 4.71783C5.12871 4.83298 5.32452 5.00214 5.4715 5.2105C5.8253 5.72033 6.00105 6.33264 5.9715 6.9525C6.00279 7.59104 5.82072 8.22184 5.454 8.7455Z" fill="#0072C6"/>
</svg>
