<svg width="32" height="32" viewBox="0 0 32 32" fill="none" xmlns="http://www.w3.org/2000/svg">
<path fill-rule="evenodd" clip-rule="evenodd" d="M9.18322 4.55617C7.56942 4.7731 6.60565 5.18448 5.8951 5.89503C5.1846 6.60553 4.77319 7.56958 4.55625 9.18363C4.33545 10.8264 4.33333 12.9863 4.33333 15.9999C4.33333 19.0142 4.33545 21.1741 4.55625 22.8167C4.77318 24.4305 5.18456 25.3943 5.8951 26.1048C6.6056 26.8153 7.56966 27.2267 9.18371 27.4437C10.8264 27.6645 12.9864 27.6666 16 27.6666C19.0143 27.6666 21.1742 27.6645 22.8168 27.4437C24.4306 27.2267 25.3944 26.8154 26.1049 26.1048C26.8154 25.3943 27.2268 24.4303 27.4437 22.8162C27.6645 21.1735 27.6667 19.0135 27.6667 15.9999C27.6667 12.9857 27.6645 10.8257 27.4437 9.18314C27.2268 7.56934 26.8154 6.60557 26.1049 5.89503C25.3944 5.18453 24.4303 4.77312 22.8163 4.55617C21.1736 4.33538 19.0136 4.33325 16 4.33325C12.9857 4.33325 10.8258 4.33538 9.18322 4.55617ZM15.9238 2.33325H16.0762C18.9969 2.33323 21.2913 2.33322 23.0827 2.574C24.9183 2.82072 26.3749 3.33664 27.5191 4.48081C28.6632 5.62494 29.1792 7.08117 29.4259 8.9167C29.6667 10.7079 29.6667 13.0023 29.6667 15.9237V16.0761C29.6667 18.9969 29.6667 21.2913 29.4259 23.0826C29.1792 24.9182 28.6633 26.3749 27.5191 27.519C26.375 28.6632 24.9188 29.1791 23.0832 29.4258C21.292 29.6666 18.9976 29.6666 16.0762 29.6666H15.9238C13.003 29.6666 10.7087 29.6666 8.91729 29.4258C7.08167 29.1791 5.62506 28.6632 4.48089 27.519C3.33676 26.3749 2.82081 24.9187 2.57408 23.0831C2.3333 21.2919 2.33331 18.9975 2.33333 16.0762V15.9237C2.33331 13.003 2.3333 10.7086 2.57407 8.91721C2.8208 7.08159 3.33672 5.62498 4.48089 4.48081C5.62501 3.33669 7.08124 2.82074 8.91677 2.574C10.708 2.33322 13.0024 2.33323 15.9238 2.33325Z" fill="white"/>
<path fill-rule="evenodd" clip-rule="evenodd" d="M22.3307 8.6665C22.3307 8.11422 22.7784 7.6665 23.3307 7.6665H23.344C23.8963 7.6665 24.344 8.11422 24.344 8.6665C24.344 9.21879 23.8963 9.6665 23.344 9.6665H23.3307C22.7784 9.6665 22.3307 9.21879 22.3307 8.6665ZM16 10.9998C14.6739 10.9998 13.4021 11.5266 12.4645 12.4643C11.5268 13.402 11 14.6738 11 15.9998C11 17.3259 11.5268 18.5977 12.4645 19.5354C13.4021 20.4731 14.6739 20.9998 16 20.9998C17.3261 20.9998 18.5978 20.4731 19.5355 19.5354C20.4732 18.5977 21 17.3259 21 15.9998C21 14.6738 20.4732 13.402 19.5355 12.4643C18.5978 11.5266 17.3261 10.9998 16 10.9998ZM11.0502 11.0501C12.363 9.73734 14.1435 8.99984 16 8.99984C17.8565 8.99984 19.637 9.73734 20.9497 11.0501C22.2625 12.3628 23 14.1433 23 15.9998C23 17.8564 22.2625 19.6368 20.9497 20.9496C19.637 22.2623 17.8565 22.9998 16 22.9998C14.1435 22.9998 12.363 22.2623 11.0502 20.9496C9.73749 19.6368 8.99999 17.8564 8.99999 15.9998C8.99999 14.1433 9.73749 12.3628 11.0502 11.0501Z" fill="white"/>
</svg>
