<svg width="16" height="16" viewBox="0 0 16 16" fill="none" xmlns="http://www.w3.org/2000/svg">
<g clip-path="url(#clip0_7594_9501)">
<mask id="mask0_7594_9501" style="mask-type:alpha" maskUnits="userSpaceOnUse" x="0" y="0" width="16" height="16">
<path d="M6.57778 3.73333V5.15555H3.02223V12.9778H10.8445V9.42222H12.2667V13.6889C12.2667 13.8775 12.1918 14.0584 12.0584 14.1917C11.925 14.3251 11.7442 14.4 11.5556 14.4H2.31112C2.12252 14.4 1.94164 14.3251 1.80829 14.1917C1.67493 14.0584 1.60001 13.8775 1.60001 13.6889V4.44444C1.60001 4.25584 1.67493 4.07497 1.80829 3.94161C1.94164 3.80825 2.12252 3.73333 2.31112 3.73333H6.57778ZM14.4 1.6V7.28889H12.9778V4.02702L7.43609 9.56942L6.43058 8.56391L11.9716 3.02222H8.71112V1.6H14.4Z" fill="black"/>
</mask>
<g mask="url(#mask0_7594_9501)">
<rect width="16" height="16" fill="#333333"/>
</g>
</g>
<defs>
<clipPath id="clip0_7594_9501">
<rect width="16" height="16" fill="white"/>
</clipPath>
</defs>
</svg>
