<svg width="18" height="18" viewBox="0 0 18 18" fill="none" xmlns="http://www.w3.org/2000/svg">
<path d="M8.92578 10.7349L2.59118 17.0695C2.35417 17.3065 2.05252 17.425 1.68624 17.425C1.31995 17.425 1.0183 17.3065 0.781294 17.0695C0.544285 16.8325 0.425781 16.5309 0.425781 16.1646C0.425781 15.7983 0.544285 15.4967 0.781294 15.2596L7.1159 8.92505L0.781294 2.59045C0.544285 2.35344 0.425781 2.05179 0.425781 1.6855C0.425781 1.31922 0.544285 1.01757 0.781294 0.780562C1.0183 0.543553 1.31995 0.425049 1.68624 0.425049C2.05252 0.425049 2.35417 0.543553 2.59118 0.780562L8.92578 7.11516L15.2604 0.780562C15.4974 0.543553 15.799 0.425049 16.1653 0.425049C16.5316 0.425049 16.8333 0.543553 17.0703 0.780562C17.3073 1.01757 17.4258 1.31922 17.4258 1.6855C17.4258 2.05179 17.3073 2.35344 17.0703 2.59045L10.7357 8.92505L17.0703 15.2596C17.3073 15.4967 17.4258 15.7983 17.4258 16.1646C17.4258 16.5309 17.3073 16.8325 17.0703 17.0695C16.8333 17.3065 16.5316 17.425 16.1653 17.425C15.799 17.425 15.4974 17.3065 15.2604 17.0695L8.92578 10.7349Z" fill="white"/>
</svg>
